<?xml version="1.0" encoding="UTF-8"?>
<svg id="Layer_1" data-name="Layer 1" xmlns="http://www.w3.org/2000/svg" viewBox="0 0 98.48 18.53">
  <defs>
    <style>
      .cls-1 {
        fill: #c6c6c6;
      }
    </style>
  </defs>
  <path class="cls-1" d="M52.13,10.42c0-2.55,0-5.1,0-7.64,0-.33,.08-.47,.42-.41,.01,0,.03,0,.04,0,.67,0,.69,0,.66-.67-.02-.4,.08-.59,.5-.51,.05,.01,.11,0,.17,0,.45,.09,.54-.12,.52-.53-.03-.65,0-.65,.63-.65,2.35,0,4.7,0,7.05,0,.32,0,.4,.09,.4,.4-.01,.77,0,.78,.79,.79,.25,0,.34,.06,.34,.33,0,.82,.02,.84,.82,.84,.4,0,.33,.24,.33,.47,0,4.55,0,9.1,0,13.64,0,.56-.02,1.13,0,1.69,.01,.31-.11,.37-.39,.37-.9-.02-1.8-.02-2.7,0-.31,0-.37-.11-.36-.39,.01-1.66,0-3.32,.01-4.98,0-.33-.08-.43-.42-.43-1.65,.02-3.29,.02-4.94,0-.34,0-.42,.11-.42,.43,.01,1.66,0,3.32,.01,4.98,0,.29-.07,.39-.37,.39-.9-.02-1.8-.02-2.7,0-.34,.01-.38-.12-.38-.41,.01-2.56,0-5.12,0-7.69Zm6.38-6.94c-.86,0-1.72,0-2.58,0-.27,0-.36,.07-.36,.36,.01,1.69,.01,3.38,0,5.07,0,.29,.07,.39,.37,.39,1.68-.01,3.35-.01,5.03,0,.3,0,.38-.09,.38-.38-.01-1.68-.01-3.35,0-5.03,0-.31-.06-.42-.39-.41-.82,.02-1.63,0-2.45,0Z"/>
  <path class="cls-1" d="M29,9.31c0,2.14,0,4.28,0,6.42,0,.38-.09,.52-.49,.5-.67-.03-.69,0-.66,.66,.02,.37-.09,.53-.46,.46-.03,0-.06,0-.08,0-.6,0-.6,0-.61,.6,0,.68,.07,.57-.59,.57-2.34,0-4.67,0-7.01,0-.35,0-.5-.05-.48-.45,.03-.73,0-.75-.72-.73-.35,.01-.5-.09-.44-.44,0-.03,0-.06,0-.08-.01-.69,.1-.63-.6-.6-.43,.02-.54-.11-.53-.53,.02-4.28,.01-8.56,0-12.84,0-.36,.06-.52,.47-.5,.66,.04,.68,0,.65-.67-.02-.41,.1-.57,.51-.5,.1,.02,.2,0,.29,0,.3,.04,.38-.08,.38-.38,0-.81,0-.81,.81-.81,2.28,0,4.56,0,6.84,0,.34,0,.46,.1,.41,.43,0,.01,0,.03,0,.04,0,.72,0,.74,.74,.72,.35-.01,.42,.11,.41,.43-.02,.74,0,.76,.75,.74,.32,0,.4,.09,.4,.4-.01,2.18,0,4.36,0,6.55Zm-9.21-.09c0,1.8,0,3.6,0,5.41,0,.33,.09,.43,.43,.42,1.66-.02,3.32-.01,4.98,0,.3,0,.38-.09,.38-.38,0-3.6,0-7.21,0-10.81,0-.3-.09-.38-.38-.38-1.66,.01-3.32,.02-4.98,0-.34,0-.43,.1-.42,.42,.01,1.77,0,3.55,0,5.32Z"/>
  <path class="cls-1" d="M92.15,.01c1.21,0,2.42,0,3.63,0,.3,0,.42,.05,.41,.39-.02,.79,0,.8,.77,.79,.28,0,.35,.09,.35,.36,0,.8,0,.81,.81,.81,.27,0,.37,.08,.36,.36-.02,.55-.01,1.1,0,1.65,0,.22-.08,.29-.29,.29-.96,0-1.91,0-2.87,0-.21,0-.3-.05-.3-.28,0-.28,.13-.64-.05-.81-.21-.2-.59-.07-.89-.07-1.46,0-2.93,0-4.39-.01-.34,0-.43,.1-.42,.43,.02,.87,.03,1.75,0,2.62-.01,.37,.11,.43,.45,.43,2-.02,4,0,6-.02,.38,0,.56,.08,.48,.48,0,.01,0,.03,0,.04,0,.66,0,.69,.67,.66,.37-.02,.48,.08,.47,.46-.03,.72,0,.73,.73,.72,.31,0,.44,.04,.44,.4-.02,2.03-.02,4.05,0,6.08,0,.31-.08,.45-.4,.4-.01,0-.03,0-.04,0-.73,0-.75,0-.72,.74,.01,.37-.11,.48-.45,.42-.04,0-.08,0-.13,0q-.55,0-.55,.56c0,.08-.01,.17,0,.25,.05,.31-.09,.37-.38,.37-1.38-.01-2.76,0-4.14,0-1.06,0-2.11-.01-3.17,0-.3,0-.42-.05-.41-.39,.02-.78,0-.8-.81-.79-.28,0-.36-.09-.36-.36,0-.78-.01-.79-.78-.8-.25,0-.34-.06-.34-.33,.02-.93,.02-1.86,0-2.79,0-.27,.09-.33,.34-.33,.92,.01,1.83,.01,2.75,0,.29,0,.4,.07,.39,.38-.02,.52,0,1.04-.01,1.56,0,.26,.05,.37,.34,.37,1.69-.01,3.38-.01,5.07,0,.28,0,.35-.09,.35-.36-.01-1.3-.02-2.59,0-3.89,0-.33-.1-.39-.41-.39-2.01,.01-4.03,0-6.04,.02-.38,0-.55-.09-.48-.48,0-.01,0-.03,0-.04,0-.6,0-.6-.6-.6-.64,0-.56,.08-.57-.6-.01-.68,.08-.6-.58-.57-.44,.02-.56-.11-.55-.55,.03-1.6,.02-3.21,0-4.81,0-.29,.04-.42,.38-.41,.74,.02,.76,0,.74-.75,0-.34,.09-.43,.42-.42,.75,.02,.78,0,.75-.73-.02-.39,.12-.46,.48-.45,1.2,.02,2.39,0,3.59,0Z"/>
  <path class="cls-1" d="M33.67,9.29c0-2.93,0-5.86,0-8.78,0-.33,.09-.42,.42-.41,.89,.02,1.77,.02,2.66,0,.3,0,.37,.09,.37,.38-.01,2.02,0,4.04-.02,6.05,0,.41,.11,.56,.52,.5,.12-.02,.25,0,.38,0,.18,0,.24-.07,.25-.25,0-.28-.12-.62,.06-.81,.18-.19,.54-.06,.81-.06,.26,0,.3-.1,.3-.33,.02-.82,.02-.83,.82-.84,.25,0,.38-.06,.34-.33,0-.01,0-.03,0-.04,.02-.78,.02-.79,.8-.79,.24,0,.34-.05,.34-.32,0-.8,.02-.81,.8-.8,.31,0,.37-.1,.37-.39,0-.77,0-.79,.78-.78,.32,0,.36-.12,.36-.39,0-.79,0-.79,.78-.79,.77,0,1.55,.01,2.32,0,.26,0,.34,.07,.34,.33-.02,.56-.01,1.12,0,1.68,0,.24-.05,.34-.32,.35-.8,0-.81,.02-.82,.79,0,.26-.08,.37-.34,.33-.01,0-.03,0-.04,0-.77,.02-.79,.02-.77,.77,0,.31-.08,.41-.4,.4-.74-.02-.75,0-.74,.75,0,.34-.11,.45-.43,.4-.01,0-.03,0-.04,0-.68,0-.7,0-.67,.69,.01,.35-.1,.45-.45,.44-.74-.02-.72,0-.74,.71-.01,.34,.06,.46,.43,.45,.74-.03,.77,0,.74,.74-.01,.38,.13,.43,.46,.42,.7-.02,.7,0,.7,.67,0,.42,.01,.84,0,1.26,0,.25,.07,.34,.33,.34,.81,0,.81,.02,.81,.82,0,.38,.01,.76,0,1.13,0,.23,.06,.31,.31,.32,.85,.02,.85,.03,.85,.9,0,.36,.01,.73,0,1.09-.01,.26,.09,.33,.34,.34,.81,.01,.81,.02,.81,.85,0,.38,0,.76,0,1.13,0,.21-.04,.3-.28,.3-.96-.01-1.91,0-2.87,0-.21,0-.32-.06-.29-.28,0-.01,0-.03,0-.04-.03-.81-.03-.82-.86-.85-.22,0-.29-.07-.29-.29,.01-.55,0-1.09,0-1.64,0-.26-.05-.37-.34-.37-.83,0-.83-.01-.83-.86,0-.17,0-.34,0-.5,0-.28,.08-.62-.05-.82-.15-.22-.52-.07-.8-.08-.23,0-.29-.09-.29-.3,0-.56,0-1.12,0-1.68,0-.26-.08-.35-.34-.34-.56,.02-1.13,.01-1.69,0-.24,0-.31,.08-.32,.31-.02,.81-.03,.82-.82,.84-.34,0-.31,.2-.31,.41,0,2,0,4.01,0,6.01,0,.39-.1,.5-.49,.48-.86-.03-1.72-.03-2.58,0-.33,0-.39-.1-.39-.4,.01-2.94,0-5.88,0-8.83Z"/>
  <path class="cls-1" d="M0,9.27C0,6.32,.02,3.38,0,.44,0,.08,.1,0,.45,0c.83,.03,1.66,.03,2.49,0,.41-.02,.54,.07,.54,.52-.02,4.66-.01,9.32-.01,13.98,0,.62-.07,.54,.53,.54,2.76,0,5.52,0,8.28,0,.32,0,.44,.07,.43,.41-.03,.9-.02,1.8,0,2.7,0,.3-.09,.37-.38,.37-3.97,0-7.94-.01-11.91,0-.35,0-.41-.12-.41-.43,.01-2.94,0-5.88,0-8.83Z"/>
  <path class="cls-1" d="M69.45,9.26c0-2.93,0-5.86-.01-8.78,0-.4,.12-.49,.49-.48,.83,.03,1.66,.03,2.49,0,.37-.01,.5,.08,.49,.48-.02,2.7-.01,5.4-.01,8.11,0,2.01,0,4.03,0,6.04,0,.33,.08,.43,.42,.43,2.79-.01,5.57,0,8.36-.02,.37,0,.48,.08,.47,.46-.03,.87-.02,1.75,0,2.62,0,.3-.06,.41-.39,.41-3.97-.01-7.94-.01-11.91,0-.36,0-.41-.13-.41-.44,0-2.94,0-5.88,0-8.82Z"/>
</svg>