<?xml version="1.0" encoding="UTF-8"?>
<svg id="Layer_1" data-name="Layer 1" xmlns="http://www.w3.org/2000/svg" viewBox="0 0 94.69 18.57">
  <defs>
    <style>
      .cls-1 {
        fill: #008345;
      }
    </style>
  </defs>
  <path class="cls-1" d="M65.87,9.26c0-2.94,0-5.88,0-8.83,0-.36,.1-.44,.44-.43,1.24,.02,2.48,.02,3.72,0,.37,0,.44,.11,.43,.45-.02,.89,0,1.77-.01,2.66,0,.3,.09,.38,.38,.38,.79,0,.79,0,.79,.8,0,.39,.01,.79,0,1.18-.01,.25,.06,.34,.33,.35,.85,.02,.85,.03,.85,.87,0,.37,.01,.73,0,1.1-.01,.26,.09,.33,.34,.33,.79,0,.79,.02,.79,.79,0,.41,.01,.82,0,1.22,0,.23,.08,.28,.29,.28,.89,.03,.89,.04,.89-.86,0-3.03,0-6.05-.01-9.08,0-.4,.12-.48,.49-.47,.87,.03,1.75,.02,2.62,0,.28,0,.36,.08,.36,.35,0,5.94,0,11.88,0,17.82,0,.26-.07,.34-.33,.34-1.32-.01-2.65-.01-3.97,0-.3,0-.34-.11-.34-.37,.01-.91,0-1.83,.01-2.75,0-.29-.07-.38-.37-.38-.76,.01-.76,0-.76-.74,0-.41,0-.82,0-1.22,0-.23-.07-.32-.31-.33-.86-.03-.86-.04-.86-.89,0-.38,0-.76,0-1.14,0-.22-.07-.29-.29-.29-.88-.04-.88-.04-.88-.92,0-.31,.01-.62,0-.93,0-.15,.11-.4-.12-.42-.31-.04-.65-.1-.95,.04-.11,.05-.04,.26-.04,.4,0,3.14-.01,6.28,0,9.42,0,.43-.11,.55-.53,.53-.81-.04-1.63-.03-2.45,0-.37,.01-.49-.07-.49-.47,.02-2.93,.01-5.86,.01-8.78Z"/>
  <path class="cls-1" d="M17.33,9.31c0-2.93,0-5.86,0-8.79,0-.35,.05-.49,.45-.48,1.25,.03,2.51,.02,3.76,0,.29,0,.39,.07,.38,.37-.02,.9,0,1.8-.01,2.7,0,.3,.05,.42,.39,.41,.79-.02,.79,0,.79,.79,0,.39,.01,.79,0,1.18-.01,.25,.06,.34,.33,.35,.83,.02,.83,.03,.83,.88,0,.37,0,.73,0,1.1,0,.23,.06,.32,.31,.32,.84,.02,.84,.03,.84,.86,0,.39,0,.79,0,1.18,0,.18,.05,.27,.24,.24,.01,0,.03,0,.04,0q.88,.04,.88-.83c0-3.03,0-6.06,0-9.08,0-.36,.06-.51,.47-.5,.86,.04,1.72,.03,2.58,0,.32,0,.41,.08,.4,.4-.02,1.39,0,2.79,0,4.18,0,4.48,0,8.96,0,13.44,0,.41-.11,.51-.51,.51-1.21-.03-2.42-.03-3.63,0-.41,.01-.48-.13-.47-.49,.02-.87,0-1.75,.01-2.62,0-.29-.07-.39-.37-.38-.78,.01-.78,0-.78-.81,0-.38-.01-.76,0-1.14,0-.25-.06-.34-.33-.35-.83-.02-.83-.03-.83-.88,0-.38,0-.76,0-1.14,0-.21-.05-.31-.28-.3-.28,0-.66,.09-.81-.05-.21-.19-.06-.58-.07-.89-.01-.37,0-.73,0-1.1,0-.17-.05-.24-.24-.26-.91-.08-.9-.09-.9,.82,0,3.04,0,6.08,0,9.13,0,.36-.08,.48-.46,.47-.86-.03-1.72-.03-2.58,0-.35,.01-.41-.11-.41-.43,.01-2.94,0-5.89,0-8.83Z"/>
  <path class="cls-1" d="M12.66,9.31c0,2.15,0,4.31,0,6.46,0,.37-.07,.52-.48,.5-.67-.03-.69,0-.67,.65,.01,.36-.07,.54-.46,.46-.01,0-.03,0-.04,0-.65,0-.65,0-.65,.64,0,.62,.06,.54-.54,.54-2.36,0-4.73,0-7.09,0-.36,0-.45-.1-.44-.45,.02-.74,0-.76-.71-.73-.34,.01-.5-.08-.44-.44,0-.03,0-.06,0-.08-.01-.69,.1-.63-.6-.6C.12,16.29,0,16.18,0,15.74,.02,11.46,.02,7.18,0,2.9c0-.42,.12-.51,.52-.5,.7,.03,.61,.1,.62-.58,.01-.68-.09-.57,.58-.58,.66-.01,.58,.09,.58-.58,0-.6,0-.6,.61-.6,2.35,0,4.7,0,7.05,0,.34,0,.46,.1,.41,.43,0,.01,0,.03,0,.04,0,.72,0,.74,.73,.72,.34-.01,.43,.1,.42,.43-.02,.74,0,.76,.75,.74,.32,0,.4,.09,.4,.4-.01,2.17,0,4.34,0,6.5Zm-9.21,0c0,1.79,0,3.58,0,5.36,0,.34,.1,.43,.43,.42,1.65-.02,3.29-.01,4.94,0,.29,0,.42-.04,.42-.38-.01-3.6-.01-7.21,0-10.81,0-.3-.09-.38-.38-.38-1.66,.01-3.32,.02-4.98,0-.34,0-.42,.1-.42,.43,.01,1.79,0,3.58,0,5.36Z"/>
  <path class="cls-1" d="M83.13,9.24c0-2.93,0-5.86,0-8.78,0-.34,.08-.45,.44-.45,3.56,.01,7.12,.01,10.69,0,.35,0,.45,.09,.44,.44-.03,.86-.03,1.72,0,2.58,.01,.37-.08,.47-.46,.47-2.38-.02-4.76,0-7.14-.02-.42,0-.52,.11-.51,.52,.03,.83,.03,1.66,0,2.49-.01,.36,.07,.48,.46,.47,1.65-.02,3.29,0,4.94-.02,.34,0,.42,.1,.42,.43-.02,.89-.02,1.77,0,2.66,0,.32-.09,.4-.4,.4-1.66-.02-3.32,0-4.98-.01-.33,0-.43,.08-.43,.42,.02,1.27,.02,2.53,0,3.8,0,.34,.1,.42,.43,.42,2.41-.01,4.81,0,7.22-.01,.34,0,.46,.07,.45,.43-.03,.87-.03,1.75,0,2.62,.01,.36-.11,.44-.45,.43-3.55-.01-7.1-.01-10.64,0-.36,0-.47-.08-.47-.46,.02-2.94,0-5.88,0-8.83Z"/>
  <path class="cls-1" d="M56.04,.06c1.96,0,3.91,0,5.87,0,.36,0,.45,.1,.44,.45-.02,.89-.02,1.77,0,2.66,0,.3-.1,.38-.38,.37-1.27-.01-2.53,0-3.8-.01-.34,0-.45,.06-.45,.43,.01,3.58,.01,7.15,0,10.73,0,.34,.1,.42,.42,.41,1.27-.02,2.53,0,3.8-.01,.3,0,.42,.06,.41,.39-.02,.9-.02,1.8,0,2.7,0,.28-.05,.39-.37,.39-3.98-.01-7.97,0-11.95,0-.28,0-.35-.09-.35-.36,.01-.9,.02-1.8,0-2.7,0-.32,.07-.43,.41-.43,1.24,.02,2.48,0,3.72,.02,.33,0,.46-.06,.46-.43-.01-3.58-.01-7.15,0-10.73,0-.35-.11-.42-.43-.41-1.27,.02-2.53,0-3.8,.01-.28,0-.36-.08-.35-.35,.02-.93,.02-1.86,0-2.79,0-.3,.11-.34,.37-.34,2,0,4,0,6,0Z"/>
  <path class="cls-1" d="M34.65,9.28c0-2.93,0-5.86,0-8.79,0-.36,.1-.45,.45-.44,.86,.02,1.72,.03,2.58,0,.35-.01,.45,.08,.45,.44-.01,3.3,0,6.59,0,9.89,0,1.42,.02,2.84-.01,4.27,0,.39,.12,.46,.48,.46,2.77-.01,5.55,0,8.32-.02,.34,0,.46,.07,.45,.43-.03,.89-.02,1.77,0,2.66,0,.27-.04,.39-.36,.39-3.99-.01-7.97-.01-11.96,0-.35,0-.38-.14-.37-.42,0-2.96,0-5.91,0-8.87Z"/>
</svg>